<?xml version="1.0" standalone="no"?>
<!DOCTYPE svg PUBLIC "-//W3C//DTD SVG 20010904//EN"
 "http://www.w3.org/TR/2001/REC-SVG-20010904/DTD/svg10.dtd">
<svg version="1.0" xmlns="http://www.w3.org/2000/svg"
 width="72.000000pt" height="72.000000pt" viewBox="0 0 72.000000 72.000000"
 preserveAspectRatio="xMidYMid meet">
<metadata>
Created by potrace 1.14, written by Peter Selinger 2001-2017
</metadata>
<g transform="translate(0.000000,72.000000) scale(0.100000,-0.100000)"
fill="#000000" stroke="none">
<path d="M146 580 c-64 -19 -106 -83 -106 -159 0 -43 5 -55 38 -93 78 -89 186
-187 213 -193 33 -8 73 11 113 54 l30 31 -31 0 c-17 0 -37 -8 -47 -19 -40 -44
-54 -37 -170 79 l-109 109 5 46 c7 55 36 91 86 104 42 12 76 0 120 -42 l32
-31 0 30 c0 66 -89 109 -174 84z"/>
<path d="M347 523 c-4 -3 -7 -40 -7 -80 l0 -74 63 3 c60 3 62 4 65 31 2 16 -2
35 -9 43 -8 10 -8 14 0 14 15 0 14 43 -1 58 -13 13 -100 17 -111 5z m98 -38
c0 -16 -8 -21 -42 -23 -40 -3 -43 -2 -43 23 0 25 3 26 43 23 34 -2 42 -7 42
-23z m0 -70 c0 -16 -8 -21 -42 -23 -40 -3 -43 -2 -43 23 0 25 3 26 43 23 34
-2 42 -7 42 -23z"/>
<path d="M658 459 c-2 -7 -22 -12 -43 -13 -48 -1 -63 -31 -21 -42 14 -3 26
-10 26 -15 0 -13 -24 -11 -38 3 -9 9 -12 8 -12 -6 0 -13 7 -17 32 -14 45 4 51
36 9 44 -40 8 -31 22 13 21 31 -1 35 -4 38 -31 2 -22 9 -32 23 -34 12 -2 16 0
9 5 -18 14 -24 42 -10 55 11 11 11 16 0 26 -16 15 -21 15 -26 1z"/>
<path d="M488 425 c-8 -19 -8 -28 2 -40 14 -17 56 -20 65 -5 4 7 -2 9 -18 5
-14 -4 -28 -2 -31 4 -5 7 2 11 18 11 30 0 42 16 26 35 -19 23 -49 18 -62 -10z
m47 5 c3 -5 -3 -10 -15 -10 -12 0 -18 5 -15 10 3 6 10 10 15 10 5 0 12 -4 15
-10z"/>
<path d="M352 298 l-2 -58 40 0 c22 0 40 5 40 10 0 6 -16 10 -34 10 -34 0 -35
1 -39 48 -3 46 -3 46 -5 -10z"/>
<path d="M480 335 c0 -8 -6 -15 -12 -15 -10 0 -10 -2 -1 -8 6 -4 13 -23 16
-42 l4 -35 1 38 c2 28 6 37 20 38 15 0 14 1 -3 8 -19 8 -19 8 0 19 19 11 19
11 -2 12 -14 0 -23 -6 -23 -15z"/>
<path d="M443 280 c0 -25 2 -35 4 -22 2 12 2 32 0 45 -2 12 -4 2 -4 -23z"/>
<path d="M524 295 c-4 -15 -1 -32 7 -41 15 -18 51 -15 57 6 5 13 3 13 -12 1
-13 -11 -20 -11 -28 -3 -9 9 -7 12 8 12 10 0 25 4 33 9 12 8 12 12 2 25 -21
26 -60 20 -67 -9z m51 5 c3 -5 -3 -10 -14 -10 -12 0 -21 5 -21 10 0 6 6 10 14
10 8 0 18 -4 21 -10z"/>
</g>
</svg>
